:SAMPLES-PER-SECOND 30
:FULLY-SPECIFIED
:DEGREES
109
root  -12.3322 18.8499 -0.341285 97.5429 76.6772 123.213
RightUpLeg  -54.9939 -1.83079 -1.86457
RightLeg  125.099 17.5315 -7.42334
RightFoot  -35.4295 -0.172314 -0.935758
RightToes  2.85217e-009 -3.18055e-015 8.94531e-016
Spine  59.5059 0.366717 -4.11615
Spine1  9.73677 -0.874581 -5.76387
HEad  -23.6063 -4.55865 8.92457
LeftShoulder1  0 -2.69403e-036 -1.28585e-037
LeftArm  -6.79024 -52.1002 -69.702
LeftForeArm  -133.878 -51.0706 167.537
LeftHand  0.118168 3.9513 13.2378
RightShoulder  -2.48481e-017 0 -8.08114e-019
RightArm  -3.43675 39.5161 69.4081
RightForeArm  -92.692 45.6202 -155.645
RightHand  4.14292 -17.3288 -24.0332
LeftUpLeg  -61.7702 -2.43065 3.65626
LeftLeg  129.644 8.52966 -26.1029
LeftFoot  -1.05426 1.89267 -17.1792
LeftToes  -3.29237e-010 -4.9359e-011 -7.59376e-011
110
root  -11.6439 18.6593 -0.42511 92.4536 75.7099 119.436
RightUpLeg  -52.5428 -0.86351 -3.20917
RightLeg  127.224 17.9379 -7.29409
RightFoot  -35.9877 0.13159 0.59483
RightToes  2.85217e-009 -3.18055e-015 8.94531e-016
Spine  59.6019 0.868536 -5.17669
Spine1  10.7439 -0.484872 -7.42301
HEad  -22.8851 -4.49027 8.3023
LeftShoulder1  0 -2.69403e-036 -1.28585e-037
LeftArm  -6.76388 -51.1082 -69.8591
LeftForeArm  -133.682 -50.8757 167.677
LeftHand  0.0763144 3.79513 13.2898
RightShoulder  -2.48481e-017 0 -8.08114e-019
RightArm  -2.94323 38.953 69.7271
RightForeArm  -92.6267 45.7319 -155.498
RightHand  4.09799 -17.2442 -23.8702
LeftUpLeg  -67.5762 -1.95857 -2.02485
LeftLeg  124.934 2.70974 -23.2439
LeftFoot  -7.38408 0.660661 -12.9333
LeftToes  -3.29237e-010 -4.9359e-011 -7.59376e-011
111
root  -11.0856 18.2404 -0.562705 88.6742 75.093 116.825
RightUpLeg  -51.3642 -0.148583 -4.04097
RightLeg  129.895 18.5102 -7.1714
RightFoot  -35.8282 0.48174 2.34638
RightToes  2.85217e-009 -3.18055e-015 8.94531e-016
Spine  59.999 1.21311 -5.98539
Spine1  11.0652 -0.21081 -8.40504
HEad  -22.4307 -4.40478 7.86083
LeftShoulder1  0 -2.69403e-036 -1.28585e-037
LeftArm  -7.1772 -50.5792 -69.4845
LeftForeArm  -134.575 -50.6638 167.912
LeftHand  0.15785 4.10449 13.2287
RightShoulder  -2.48481e-017 0 -8.08114e-019
RightArm  -2.77096 38.4625 69.892
RightForeArm  -92.7172 45.8697 -155.328
RightHand  4.00468 -17.0324 -23.6363
LeftUpLeg  -72.4152 -1.71118 -6.94482
LeftLeg  118.38 -4.2588 -17.3968
LeftFoot  -10.5243 0.214549 -10.1277
LeftToes  -3.29237e-010 -4.9359e-011 -7.59376e-011
112
root  -10.5974 17.6498 -0.766779 84.3825 75.0506 113.703
RightUpLeg  -50.8493 0.109819 -4.18904
RightLeg  132.873 19.3478 -7.17652
RightFoot  -35.4727 0.740392 3.69
RightToes  2.85217e-009 -3.18055e-015 8.94531e-016
Spine  60.7114 1.42472 -6.3965
Spine1  11.1752 -0.0679461 -8.78007
HEad  -22.4673 -4.08133 7.49468
LeftShoulder1  0 -2.69403e-036 -1.28585e-037
LeftArm  -8.0805 -50.5719 -68.3847
LeftForeArm  -135.531 -50.4311 168.165
LeftHand  0.255237 4.47516 13.1559
RightShoulder  -2.48481e-017 0 -8.08114e-019
RightArm  -2.44736 38.2873 70.3416
RightForeArm  -92.8748 45.9937 -155.178
RightHand  3.94831 -16.9143 -23.46
LeftUpLeg  -75.651 -1.33852 -10.5271
LeftLeg  111.104 -9.11041 -11.393
LeftFoot  -12.5999 0.025419 -9.23728
LeftToes  -3.29237e-010 -4.9359e-011 -7.59376e-011
113
root  -10.1221 16.9677 -1.02935 79.634 75.3371 109.931
RightUpLeg  -50.7153 -0.215352 -3.9066
RightLeg  135.88 20.5466 -7.4048
RightFoot  -35.3331 0.900834 4.52948
RightToes  2.85217e-009 -3.18055e-015 8.94531e-016
Spine  61.333 1.54006 -6.70577
Spine1  11.6004 -0.0387672 -8.90954
HEad  -23.0018 -3.52435 7.05442
LeftShoulder1  0 -2.69403e-036 -1.28585e-037
LeftArm  -9.22306 -50.9479 -66.8852
LeftForeArm  -135.408 -50.2718 168.278
LeftHand  0.27937 4.56712 13.1355
RightShoulder  -2.48481e-017 0 -8.08114e-019
RightArm  -1.7867 38.4475 71.1141
RightForeArm  -92.7979 46.1138 -155.017
RightHand  3.94881 -16.907 -23.4878
LeftUpLeg  -77.2821 -1.32754 -12.4697
LeftLeg  105.073 -11.4645 -6.8718
LeftFoot  -14.8069 -0.151377 -8.79952
LeftToes  -3.29237e-010 -4.9359e-011 -7.59376e-011
114
root  -9.60654 16.2488 -1.35694 74.6293 76.0509 105.369
RightUpLeg  -50.9926 -0.979541 -3.16547
RightLeg  138.886 21.9355 -7.64468
RightFoot  -35.4452 1.03529 5.18678
RightToes  2.85217e-009 -3.18055e-015 8.94531e-016
Spine  61.4416 1.36634 -6.73168
Spine1  12.3469 -0.0542645 -9.12475
HEad  -23.7483 -2.82015 6.48989
LeftShoulder1  0 -2.69403e-036 -1.28585e-037
LeftArm  -10.2883 -51.4705 -65.5053
LeftForeArm  -134.711 -50.2054 168.276
LeftHand  0.289868 4.59925 13.0487
RightShoulder  -2.48481e-017 0 -8.08114e-019
RightArm  -1.25207 38.6782 71.8936
RightForeArm  -92.3046 46.2803 -154.765
RightHand  3.9181 -16.7785 -23.5955
LeftUpLeg  -78.0214 -2.0116 -12.3566
LeftLeg  101.46 -12.7605 -2.44317
LeftFoot  -15.4601 -0.196854 -8.36644
LeftToes  -3.29237e-010 -4.9359e-011 -7.59376e-011
115
root  -9.03351 15.5479 -1.73116 67.5673 77.0101 98.5876
RightUpLeg  -51.0235 -1.74869 -2.17269
RightLeg  141.882 23.2806 -7.70005
RightFoot  -35.7091 1.1437 5.66623
RightToes  2.85217e-009 -3.18055e-015 8.94531e-016
Spine  61.4229 1.0894 -6.53262
Spine1  13.248 -0.0546358 -9.47994
HEad  -24.5193 -1.99136 5.90475
LeftShoulder1  0 -2.69403e-036 -1.28585e-037
LeftArm  -11.2348 -51.9822 -64.3876
LeftForeArm  -134.283 -50.1498 168.287
LeftHand  0.330686 4.75298 12.9933
RightShoulder  -2.48481e-017 0 -8.08114e-019
RightArm  -1.02197 38.7221 72.6029
RightForeArm  -91.6295 46.4789 -154.456
RightHand  3.81226 -16.4946 -23.4501
LeftUpLeg  -78.4501 -2.63635 -10.7987
LeftLeg  100.425 -13.8456 2.33888
LeftFoot  -13.0488 -0.0140665 -8.03857
LeftToes  -3.29237e-010 -4.9359e-011 -7.59376e-011
116
root  -8.40751 14.9013 -2.12976 57.1952 77.8105 88.733
RightUpLeg  -50.1037 -2.43666 -1.16122
RightLeg  144.631 24.7209 -7.75241
RightFoot  -36.4594 1.20316 5.77079
RightToes  2.85217e-009 -3.18055e-015 8.94531e-016
Spine  61.532 0.946231 -6.3426
Spine1  14.4096 -0.00840356 -9.85335
HEad  -25.3517 -1.17115 5.34486
LeftShoulder1  0 -2.69403e-036 -1.28585e-037
LeftArm  -12.1891 -52.4263 -63.4196
LeftForeArm  -133.841 -50.0563 168.325
LeftHand  0.327195 4.76617 13.2648
RightShoulder  -2.48481e-017 0 -8.08114e-019
RightArm  -0.649348 38.6311 73.3899
RightForeArm  -91.1124 46.647 -154.195
RightHand  3.71426 -16.2995 -23.0847
LeftUpLeg  -79.224 -2.53721 -9.04882
LeftLeg  101.748 -14.8129 5.64149
LeftFoot  -9.27561 0.247065 -7.6298
LeftToes  -3.29237e-010 -4.9359e-011 -7.59376e-011
117
root  -7.67895 14.3239 -2.55238 43.9023 78.7704 75.2118
RightUpLeg  -48.7438 -3.50445 0.675885
RightLeg  146.737 26.7093 -8.20103
RightFoot  -38.272 1.34636 5.97526
RightToes  2.85217e-009 -3.18055e-015 8.94531e-016
Spine  60.6858 0.424866 -5.56648
Spine1  15.9031 0.152382 -10.3387
HEad  -26.1833 -0.627831 4.694
LeftShoulder1  0 -2.69403e-036 -1.28585e-037
LeftArm  -13.0398 -52.7585 -62.703
LeftForeArm  -133.074 -49.9335 168.361
LeftHand  0.239565 4.49353 13.8831
RightShoulder  -2.48481e-017 0 -8.08114e-019
RightArm  -0.182522 38.6989 74.053
RightForeArm  -90.9368 46.751 -154.043
RightHand  3.78383 -16.3674 -23.5809
LeftUpLeg  -81.7283 -2.35853 -7.18017
LeftLeg  104.817 -15.6174 6.77895
LeftFoot  -6.77368 0.368239 -6.71226
LeftToes  -3.29237e-010 -4.9359e-011 -7.59376e-011
118
root  -6.92432 13.946 -2.99833 32.5837 80.1658 63.3096
RightUpLeg  -46.0721 -5.06153 1.47476
RightLeg  148.159 27.8337 -8.31437
RightFoot  -40.8437 1.68697 6.76186
RightToes  2.85217e-009 -3.18055e-015 8.94531e-016
Spine  59.9388 -0.886996 -4.23201
Spine1  16.9193 -0.287458 -10.8335
HEad  -26.7434 -0.409972 3.90305
LeftShoulder1  0 -2.69403e-036 -1.28585e-037
LeftArm  -13.3956 -52.9265 -62.5188
LeftForeArm  -132.693 -49.7541 168.469
LeftHand  0.158139 4.25699 14.5353
RightShoulder  -2.48481e-017 0 -8.08114e-019
RightArm  0.255968 39.0301 74.371
RightForeArm  -91.1453 46.7928 -154.001
RightHand  3.92357 -16.6108 -24.1986
LeftUpLeg  -84.1847 -3.43544 -5.71034
LeftLeg  107.711 -16.3391 7.3405
LeftFoot  -5.70716 0.349404 -5.44593
LeftToes  -3.29237e-010 -4.9359e-011 -7.59376e-011
119
root  -6.25271 13.8646 -3.37663 20.2702 80.0207 49.9808
RightUpLeg  -44.4566 -4.73298 1.63954
RightLeg  148.841 28.0838 -8.18224
RightFoot  -41.4221 1.91404 7.53939
RightToes  2.85217e-009 -3.18055e-015 8.94531e-016
Spine  59.5274 -1.33325 -3.56932
Spine1  17.2187 -0.250722 -11.3009
HEad  -26.8878 -0.249988 3.17216
LeftShoulder1  0 -2.69403e-036 -1.28585e-037
LeftArm  -13.0381 -52.9755 -62.9434
LeftForeArm  -133.168 -49.4936 168.699
LeftHand  0.16305 4.32266 14.975
RightShoulder  -2.48481e-017 0 -8.08114e-019
RightArm  0.570589 39.521 74.3576
RightForeArm  -91.3941 46.8332 -153.964
RightHand  3.99276 -16.8479 -24.1097
LeftUpLeg  -85.5062 -3.3282 -4.39516
LeftLeg  109.63 -16.9573 7.94356
LeftFoot  -5.36418 0.318698 -4.75476
LeftToes  -3.29237e-010 -4.9359e-011 -7.59376e-011
120
root  -5.63969 14.0348 -3.659 8.20575 78.4972 35.8051
RightUpLeg  -45.272 -2.89508 2.48391
RightLeg  148.695 28.3106 -8.35865
RightFoot  -40.0923 1.90046 7.86012
RightToes  2.85217e-009 -3.18055e-015 8.94531e-016
Spine  58.5362 -0.622529 -3.61285
Spine1  17.2386 0.651541 -11.4516
HEad  -26.7907 -0.0219199 2.74929
LeftShoulder1  0 -2.69403e-036 -1.28585e-037
LeftArm  -12.278 -53.0999 -63.7282
LeftForeArm  -133.723 -49.2577 168.914
LeftHand  0.209862 4.51737 15.2046
RightShoulder  -2.48481e-017 0 -8.08114e-019
RightArm  0.534998 40.131 74.016
RightForeArm  -91.4271 46.879 -153.904
RightHand  4.05339 -17.008 -24.1866
LeftUpLeg  -86.8562 -1.57463 -3.00744
LeftLeg  111.006 -17.4129 8.31488
LeftFoot  -5.68547 0.308965 -4.83974
LeftToes  -3.29237e-010 -4.9359e-011 -7.59376e-011
